<svg width="256" height="256" viewBox="0 0 256 256" fill="none" xmlns="http://www.w3.org/2000/svg">
<rect width="256" height="256" rx="64" fill="#451D07"/>
<path d="M190.877 114.473C190.631 113.668 190.458 112.842 190.325 112.008C190.264 111.622 190.193 111.238 190.112 110.857C189.937 110.027 189.741 109.203 189.53 108.383V108.381C193.024 102.872 209.726 74.1394 190.72 55.6976C169.626 35.2298 144.979 62.0576 144.979 62.0576L145.056 62.1767C133.978 58.6706 121.966 58.2589 110.28 62.0565C110.279 62.0565 110.278 62.0565 110.278 62.0565C110.134 61.8992 85.57 35.2899 64.5379 55.6976C43.4992 76.1122 66.2177 109.139 66.3365 109.312C66.3365 109.312 66.3365 109.313 66.3365 109.314C66.0944 110.09 65.899 110.882 65.7703 111.687C63.4943 125.82 48 130.182 48 154.8C48 179.418 64.2093 199.667 97.294 199.667H110.87C110.87 199.667 110.871 199.667 110.872 199.667C110.933 199.757 116.522 208.009 127.999 208C138.654 207.992 145.691 199.738 145.752 199.667C145.752 199.667 145.752 199.667 145.754 199.667H158.706C191.791 199.667 208 179.893 208 154.8C208 131.875 194.563 126.515 190.878 114.473H190.877Z" fill="white"/>
<path d="M190.877 114.473C190.631 113.668 190.458 112.842 190.325 112.008C190.264 111.622 190.193 111.238 190.112 110.857C189.937 110.027 189.741 109.203 189.53 108.383V108.381C193.024 102.872 209.726 74.1394 190.72 55.6976C169.626 35.2298 144.979 62.0576 144.979 62.0576L145.056 62.1767C133.978 58.6706 121.966 58.2589 110.28 62.0565C110.279 62.0565 110.278 62.0565 110.278 62.0565C110.134 61.8992 85.57 35.2899 64.5379 55.6976C43.4992 76.1122 66.2177 109.139 66.3365 109.312C66.3365 109.312 66.3365 109.313 66.3365 109.314C66.0944 110.09 65.899 110.882 65.7703 111.687C63.4943 125.82 48 130.182 48 154.8C48 179.418 64.2093 199.667 97.294 199.667H110.87C110.87 199.667 110.871 199.667 110.872 199.667C110.933 199.757 116.522 208.009 127.999 208C138.654 207.992 145.691 199.738 145.752 199.667C145.752 199.667 145.752 199.667 145.754 199.667H158.706C191.791 199.667 208 179.893 208 154.8C208 131.875 194.563 126.515 190.878 114.473H190.877Z" fill="#DEB69A"/>
</svg>
